REM DIRINDEX 1\2,1\4,1\5,1\6,1\7,1\3\8,1\3\9,1\3\10
REM DIRNAME folder01,folder02,folder03,folder04,folder05,folder06,folder07,folder08,folder09,folder10
TITLE ""
FILE "DB4500_5th_3B_01.mp3" MP3
  TRACK 01 AUDIO
    TITLE "7:cjc113_1824"
    INDEX 01 00:00:00
  TRACK 02 AUDIO
    TITLE "8:cjc113_1825"
    INDEX 01 00:02:38
  TRACK 03 AUDIO
    TITLE "0:"
    INDEX 01 00:03:63
  TRACK 04 AUDIO
    TITLE "9:cjc113_1826"
    INDEX 01 00:04:11
  TRACK 05 AUDIO
    TITLE "0:"
    INDEX 01 00:05:32
  TRACK 06 AUDIO
    TITLE "10:cjc113_1827"
    INDEX 01 00:05:50
  TRACK 07 AUDIO
    TITLE "0:"
    INDEX 01 00:08:62
  TRACK 08 AUDIO
    TITLE "8:cjc113_1828"
    INDEX 01 00:09:28
  TRACK 09 AUDIO
    TITLE "0:"
    INDEX 01 00:10:39
  TRACK 10 AUDIO
    TITLE "9:cjc113_1829"
    INDEX 01 00:10:55
  TRACK 11 AUDIO
    TITLE "0:"
    INDEX 01 00:12:05
  TRACK 12 AUDIO
    TITLE "10:cjc113_1830"
    INDEX 01 00:12:22
  TRACK 13 AUDIO
    TITLE "0:"
    INDEX 01 00:15:50
  TRACK 14 AUDIO
    TITLE "8:cjc113_1831"
    INDEX 01 00:16:16
  TRACK 15 AUDIO
    TITLE "0:"
    INDEX 01 00:17:53
  TRACK 16 AUDIO
    TITLE "9:cjc113_1832"
    INDEX 01 00:17:69
  TRACK 17 AUDIO
    TITLE "0:"
    INDEX 01 00:19:26
  TRACK 18 AUDIO
    TITLE "10:cjc113_1833"
    INDEX 01 00:19:42
  TRACK 19 AUDIO
    TITLE "0:"
    INDEX 01 00:23:34
  TRACK 20 AUDIO
    TITLE "8:cjc113_1834"
    INDEX 01 00:24:12
  TRACK 21 AUDIO
    TITLE "0:"
    INDEX 01 00:25:23
  TRACK 22 AUDIO
    TITLE "9:cjc113_1835"
    INDEX 01 00:25:41
  TRACK 23 AUDIO
    TITLE "0:"
    INDEX 01 00:27:20
  TRACK 24 AUDIO
    TITLE "10:cjc113_1836"
    INDEX 01 00:27:38
  TRACK 25 AUDIO
    TITLE "0:"
    INDEX 01 00:29:62
  TRACK 26 AUDIO
    TITLE "10:cjc113_1837"
    INDEX 01 00:30:22
  TRACK 27 AUDIO
    TITLE "0:"
    INDEX 01 00:33:13
  TRACK 28 AUDIO
    TITLE "8:cjc113_1838"
    INDEX 01 00:33:54
  TRACK 29 AUDIO
    TITLE "0:"
    INDEX 01 00:34:61
  TRACK 30 AUDIO
    TITLE "9:cjc113_1839"
    INDEX 01 00:35:04
  TRACK 31 AUDIO
    TITLE "0:"
    INDEX 01 00:36:21
  TRACK 32 AUDIO
    TITLE "10:cjc113_1840"
    INDEX 01 00:36:40
  TRACK 33 AUDIO
    TITLE "0:"
    INDEX 01 00:38:71
  TRACK 34 AUDIO
    TITLE "8:cjc113_1841"
    INDEX 01 00:39:39
  TRACK 35 AUDIO
    TITLE "0:"
    INDEX 01 00:40:40
  TRACK 36 AUDIO
    TITLE "9:cjc113_1842"
    INDEX 01 00:40:58
  TRACK 37 AUDIO
    TITLE "0:"
    INDEX 01 00:42:14
  TRACK 38 AUDIO
    TITLE "10:cjc113_1843"
    INDEX 01 00:42:33
  TRACK 39 AUDIO
    TITLE "0:"
    INDEX 01 00:46:00
  TRACK 40 AUDIO
    TITLE "8:cjc113_1844"
    INDEX 01 00:46:43
  TRACK 41 AUDIO
    TITLE "0:"
    INDEX 01 00:47:52
  TRACK 42 AUDIO
    TITLE "9:cjc113_1845"
    INDEX 01 00:47:68
  TRACK 43 AUDIO
    TITLE "0:"
    INDEX 01 00:49:37
  TRACK 44 AUDIO
    TITLE "10:cjc113_1846"
    INDEX 01 00:49:55
  TRACK 45 AUDIO
    TITLE "0:"
    INDEX 01 00:52:51
  TRACK 46 AUDIO
    TITLE "8:cjc113_1847"
    INDEX 01 00:53:17
  TRACK 47 AUDIO
    TITLE "0:"
    INDEX 01 00:54:27
  TRACK 48 AUDIO
    TITLE "9:cjc113_1848"
    INDEX 01 00:54:44
  TRACK 49 AUDIO
    TITLE "0:"
    INDEX 01 00:56:18
  TRACK 50 AUDIO
    TITLE "10:cjc113_1849"
    INDEX 01 00:56:33
  TRACK 51 AUDIO
    TITLE "0:"
    INDEX 01 00:59:18
  TRACK 52 AUDIO
    TITLE "8:cjc113_1850"
    INDEX 01 00:59:61
  TRACK 53 AUDIO
    TITLE "0:"
    INDEX 01 01:01:03
  TRACK 54 AUDIO
    TITLE "9:cjc113_1851"
    INDEX 01 01:01:21
  TRACK 55 AUDIO
    TITLE "0:"
    INDEX 01 01:02:55
  TRACK 56 AUDIO
    TITLE "10:cjc113_1852"
    INDEX 01 01:02:73
  TRACK 57 AUDIO
    TITLE "0:"
    INDEX 01 01:06:69
  TRACK 58 AUDIO
    TITLE "8:cjc113_1853"
    INDEX 01 01:07:37
  TRACK 59 AUDIO
    TITLE "0:"
    INDEX 01 01:08:48
  TRACK 60 AUDIO
    TITLE "9:cjc113_1854"
    INDEX 01 01:08:66
  TRACK 61 AUDIO
    TITLE "0:"
    INDEX 01 01:10:49
  TRACK 62 AUDIO
    TITLE "10:cjc113_1855"
    INDEX 01 01:10:65
  TRACK 63 AUDIO
    TITLE "0:"
    INDEX 01 01:14:33
  TRACK 64 AUDIO
    TITLE "8:cjc113_1856"
    INDEX 01 01:15:01
  TRACK 65 AUDIO
    TITLE "0:"
    INDEX 01 01:16:24
  TRACK 66 AUDIO
    TITLE "9:cjc113_1857"
    INDEX 01 01:16:42
  TRACK 67 AUDIO
    TITLE "0:"
    INDEX 01 01:18:13
  TRACK 68 AUDIO
    TITLE "10:cjc113_1858"
    INDEX 01 01:18:27
  TRACK 69 AUDIO
    TITLE "0:"
    INDEX 01 01:22:03
  TRACK 70 AUDIO
    TITLE "8:cjc113_1859"
    INDEX 01 01:22:44
  TRACK 71 AUDIO
    TITLE "0:"
    INDEX 01 01:23:52
  TRACK 72 AUDIO
    TITLE "9:cjc113_1860"
    INDEX 01 01:23:71
  TRACK 73 AUDIO
    TITLE "0:"
    INDEX 01 01:24:69
  TRACK 74 AUDIO
    TITLE "10:cjc113_1861"
    INDEX 01 01:25:11
  TRACK 75 AUDIO
    TITLE "0:"
    INDEX 01 01:28:27
  TRACK 76 AUDIO
    TITLE "8:cjc113_1862"
    INDEX 01 01:28:72
  TRACK 77 AUDIO
    TITLE "0:"
    INDEX 01 01:30:15
  TRACK 78 AUDIO
    TITLE "9:cjc113_1863"
    INDEX 01 01:30:32
  TRACK 79 AUDIO
    TITLE "0:"
    INDEX 01 01:32:02
  TRACK 80 AUDIO
    TITLE "10:cjc113_1864"
    INDEX 01 01:32:17
  TRACK 81 AUDIO
    TITLE "0:"
    INDEX 01 01:36:64
